# xmcd
#
# Track frame offsets: 
#        150
#        12367
#        27097
#        40957
#        53760
#        63472
#        78582
#        91322
#        104375
#        116370
#        130635
#        145177
#        157727
#        170112
#        185097
#        197570
#        211225
#        223887
#        240400
#        252787
#
# Disc length: 3567 seconds
#
# Revision: 1
# Processed by: cddbd v1.5.1PL2 Copyright (c) Steve Scherf et al.
# Submitted via: ExactAudioCopy v0.95b3
#
DISCID=110ded14
DTITLE=Various Artist - Chansons Immortelles, Vol. 9
DYEAR=1900
DGENRE=French Chanson
TTITLE0=Henri Garat - Je t'aimerai toujours, toujours
TTITLE1=Albert Prejean - Mon premier amour
TTITLE2=Tino Rossi - C'est à Capri
TTITLE3=Georges Milton - C'est pour mon papa
TTITLE4=Georges Ulmer et Arletty - Viens, viens Mad'leine
TTITLE5=Reda Caire - Quand l'amour veut qu'on se rencontre
TTITLE6=Andrex - Fleurs de Paris
TTITLE7=Jean Sablon - Ce petit chemin
TTITLE8=Ray Ventura - Le chef d'orchestre n'aime pas la musique
TTITLE9=Georgius - Monsieur Bebert
TTITLE10=Jacques Dutailly - Une boucle blonde
TTITLE11=Noel Noel - Les departs
TTITLE12=Leo Raiter - Rosalie est partie
TTITLE13=Jean Gabin - Quand on se promène au bord de l'eau
TTITLE14=Andreany - Le patre des montagnes
TTITLE15=Mireille - Couches dans le foin
TTITLE16=Fernandel - Maintenant je sais ce que c'est
TTITLE17=Viviane Villeneuve - La p'tite Lilie
TTITLE18=Louis Lynel - L'Angelus de la mer
TTITLE19=Lyane Maireve - Ne m'oublie pas
EXTD=
EXTT0=
EXTT1=
EXTT2=
EXTT3=
EXTT4=
EXTT5=
EXTT6=
EXTT7=
EXTT8=
EXTT9=
EXTT10=
EXTT11=
EXTT12=
EXTT13=
EXTT14=
EXTT15=
EXTT16=
EXTT17=
EXTT18=
EXTT19=
PLAYORDER=
